<?xml version="1.0" encoding="UTF-8" standalone="no"?>
<svg
   xmlns:dc="http://purl.org/dc/elements/1.1/"
   xmlns:cc="http://creativecommons.org/ns#"
   xmlns:rdf="http://www.w3.org/1999/02/22-rdf-syntax-ns#"
   xmlns:svg="http://www.w3.org/2000/svg"
   xmlns="http://www.w3.org/2000/svg"
   xmlns:sodipodi="http://sodipodi.sourceforge.net/DTD/sodipodi-0.dtd"
   xmlns:inkscape="http://www.inkscape.org/namespaces/inkscape"
   width="1000"
   height="299.425"
   viewBox="0 0 1000 299.425"
   version="1.1"
   id="svg7178">
  <g
     transform="matrix(3.3333338,0,0,3.3333338,-602.23765,-2024.0276)"
     id="layer1">
    <path
       id="path6960"
       style="fill:#ffffff;fill-opacity:1;fill-rule:nonzero;stroke:none"
       d="m 480.51439,623.6535 -29.37898,-0.0215 c 0,0 -6.76587,-10.71926 -21.24591,-10.71926 -14.47869,0 -22.82861,12.74647 -23.48594,17.15918 l 0.0323,-6.38604 h -25.72193 v -10.52126 h -29.85984 v 10.60882 h -23.71493 v 19.98245 c -1.448,-5.62364 -7.83135,-19.46925 -23.90351,-19.7858 h -47.31132 v 30.13733 h 41.83719 v 12.80305 H 257.2282 l -15.02556,30.03631 c 0,0 54.42204,0.0889 59.83555,0.0889 9.16081,0 14.13116,-3.36881 16.52744,-5.97925 l -2.63064,5.89035 41.94495,0.0714 c 7.12013,-0.0714 22.69795,-7.77476 22.69795,-24.27123 0,-16.49511 0,-18.63951 0,-18.63951 h 25.84047 v -6.98005 c 4.06788,12.49728 14.66591,16.68774 20.95631,17.1942 12.04874,0.96444 19.08266,-5.01076 23.56675,-10.72331 l -0.18588,12.87982 h -40.12652 l -14.32514,30.13868 60.10224,0.31655 c 13.12093,-0.0122 23.90755,-10.70446 24.10825,-24.42614 0.35291,-23.79306 0,-48.85362 0,-48.85362 z m -129.93103,42.73967 h -19.7575 l -3.33242,6.26615 v -18.58697 h 23.08992 z" />
    <path
       id="path6962"
       style="fill:#ed2328;fill-opacity:1;fill-rule:nonzero;stroke:none"
       d="m 259.6474,628.13894 v 21.61364 h 42.13623 v 21.39408 h -41.89647 l -10.95094,21.83051 h 55.23022 c 8.79578,-0.25863 19.04225,-9.0773 19.04225,-19.88681 v -24.63627 c -0.27883,-8.59238 -5.45796,-20.05788 -20.94823,-20.31515 H 259.6474" />
    <path
       id="path6964"
       style="fill:#ed2328;fill-opacity:1;fill-rule:nonzero;stroke:none"
       d="m 331.06562,628.13894 v 21.39678 h 23.80788 v 20.96304 h -21.42776 l -10.95095,22.26154 c 0,0 27.61309,-0.21686 33.09125,-0.21686 14.969,0 20.70848,-12.77341 20.70848,-20.31516 0,-8.86177 0,-22.26018 0,-22.26018 h 25.7098 V 628.13894 H 376.52889 V 617.11795 H 354.8735 v 11.23786 l -23.80788,-0.21687" />
    <path
       id="path6966"
       style="fill:#ed2328;fill-opacity:1;fill-rule:nonzero;stroke:none"
       d="m 413.42941,670.71428 -10.71118,21.61229 c 0,0 43.08584,0 52.1335,0 17.20228,0 21.66213,-12.10665 21.66213,-20.96304 0,-13.18289 0,-43.65562 0,-43.65562 h -21.18664 v 43.00637 h -41.89781" />
    <g
       id="g6974"
       transform="matrix(0,-1.3469799,-1.3469799,0,929.0102,1681.8288)">
      <g
         id="g6976">
        <g
           id="g6982">
          <path
             id="path6990"
             style="fill:#e1c73e;stroke:none;fill-opacity:1"
             d="m 774.088,545.088 c 0.528,-1.105 4.628,-5.89 6.303,-6.778 h 3.002 v 6.337 c 0,0 0.437,-0.137 1.021,-0.505 l -0.038,3.7 c -2.115,1.985 -3.199,3.419 -4.675,6.119 l -3.692,-1.159 c 0.298,-0.606 0.666,-1.315 0.942,-1.813 -0.538,-0.437 -1.252,-0.865 -1.877,-1.078 -1.186,2.141 -2.039,4.089 -2.553,5.657 l -3.852,-1.077 c 0.242,-0.864 0.675,-1.778 1.06,-2.317 l -6.5,1.023 0.015,-3.36 0.548,-0.246 -0.082,-6.094 -0.481,-0.054 v -3.182 l 10.859,-2.008 z m 5.178,2.741 c 0.212,-0.215 0.438,-0.432 0.68,-0.647 v -3.803 c -0.805,0.304 -2.172,1.713 -2.708,2.645 0.694,0.414 1.64,1.191 2.028,1.805 z m -11.679,-5.195 v 6.468 l 2.581,-0.307 v -6.507 l -2.581,0.346" />
        </g>
      </g>
    </g>
    <g
       id="g6992"
       transform="matrix(0,-1.3469799,-1.3469799,0,929.0102,1681.8288)">
      <g
         id="g6994">
        <g
           id="g7000">
          <path
             id="path7008"
             style="fill:#e1c73e;stroke:none;fill-opacity:1"
             d="m 775.282,521.633 c 0.459,-1.037 2.312,-1.107 3.243,-1.402 0.236,0.562 0.497,0.861 0.717,1.033 l -0.012,-0.888 4.815,-0.281 v 11.444 l -2.585,0.35 v 0.733 l 3.289,-0.517 v 2.916 l -3.513,0.554 v 0.952 l -3.868,0.52 0.017,-0.989 -3.419,0.593 c 0,0 -0.225,0.396 -0.385,1.151 l -3.804,0.143 c -0.015,-0.288 0.192,-0.755 0.192,-0.755 l -1.878,0.361 c -0.303,0.062 -0.508,0.522 -0.577,1.094 l -4.285,0.055 c 0,0 -0.56,-3.592 1.493,-3.988 l 1.429,-0.2 -3.034,-0.95 c 1.123,-1.475 2.504,-2.874 3.435,-3.952 l -3.274,0.323 v -3.018 l 3.113,-0.396 c -0.802,-0.539 -2.247,-1.939 -2.727,-2.802 l 3.175,-1.833 c 1.099,1.315 2.702,2.762 3.757,3.091 v -3.629 l 3.668,-0.466 -0.057,4.615 1.053,-0.074 c -0.024,-1.038 0.022,-3.788 0.022,-3.788 z m 5.135,1.51 -1.154,-0.324 -0.006,-0.346 c -1.239,0.226 -1.118,0.858 -1.055,0.921 0.067,0.134 0.302,0.18 0.579,0.142 l 1.604,0.109 z m -1.187,6.934 c 0,0 0.643,-0.647 1.155,-1.044 -0.739,0 -2.54,0.966 -2.453,2.888 l 1.27,-0.07 z m -1.894,2.964 0.048,-1.059 -3.12,-0.993 v 1.327 l 1.31,0.151 c 0,0 -0.355,0.448 -0.419,0.843 z m -10.497,0.989 c -0.124,0.174 -0.079,0.269 -0.021,0.388 l 4.174,-0.583 c 0.102,-0.27 0.243,-0.556 0.429,-0.883 l -0.825,0.089 v -2.82 c -1.443,0.79 -3.145,2.944 -3.757,3.809 z m 7.425,-3.126 c 0.406,-0.693 0.93,-1.576 1.644,-2.338 l -1.644,0.058 z m 1.677,-2.375 c 0.302,-0.318 0.634,-0.613 1.01,-0.861 0.577,-0.41 2.086,-1.041 3.484,-1.147 v -0.504 l -4.478,0.393 c -0.006,0.003 -0.01,0.003 -0.016,0.003 v 2.116" />
        </g>
      </g>
    </g>
    <g
       id="g7010"
       transform="matrix(0,-1.3469799,-1.3469799,0,929.0102,1681.8288)">
      <g
         id="g7012">
        <g
           id="g7018">
          <path
             id="path7026"
             style="fill:#e1c73e;stroke:none;fill-opacity:1"
             d="m 780.922,501.674 2.902,-0.408 0.012,4.611 0.877,-0.156 v 3.616 l -4.585,0.798 v 3.396 l -12.854,2.102 -0.01,-2.28 c -0.475,1.047 -0.809,2.185 -1.214,3.286 l 12.537,-1.707 c 1.802,-0.995 5.537,-1.887 6.116,-1.724 l 0.048,3.125 c -4.767,1.186 -5.249,1.749 -8.041,3.879 l -5.585,-0.107 c 0.097,-0.267 0.675,-1.076 1.252,-1.399 l -9.226,1.237 v -2.909 l 2.734,-0.373 -2.703,-1.406 c 0.336,-1.617 1.173,-3.682 2.358,-5.12 l 1.715,0.995 -0.011,-2.778 -1.679,1.278 c -1.276,-1.489 -2.047,-2.89 -2.481,-4.775 l 2.842,-1.942 c 0.723,2.094 0.929,2.823 1.31,3.747 l -0.011,-2.777 12.903,-1.994 v 4.469 l 0.794,-0.091 z m -10.868,5.357 v 4.312 l 1.047,-0.148 v -4.312 z m 3.023,-0.427 v 4.31 l 1.081,-0.153 v -4.312 z m 4.128,-0.587 -1.072,0.152 v 4.311 l 1.072,-0.153 v -4.31" />
        </g>
      </g>
    </g>
    <path
       id="path7028"
       style="fill:#e1c73e;fill-opacity:1;fill-rule:nonzero;stroke:none"
       d="m 188.29384,613.81246 c 0.70986,0 1.71875,0.005 2.01373,0.24919 0.70447,0.57786 0.61288,1.15706 0.61288,2.26428 0,1.03852 -0.0511,1.875 -0.71524,2.5404 -0.19262,0.19128 -1.1611,0.12123 -1.91137,0.12123 h -2.13092 v -5.1751 z m -3.82139,6.51669 h 3.5493 c 1.22171,0 2.44208,0.13335 3.191,-0.4701 0.9092,-0.70446 1.23787,-2.03393 1.23787,-3.30817 0,-1.37527 -0.21148,-2.98356 -1.08028,-3.65571 -0.82704,-0.63847 -2.16729,-0.46201 -3.34859,-0.46201 h -3.5493 v 7.89599" />
    <path
       id="path7030"
       style="fill:#e1c73e;fill-opacity:1;fill-rule:nonzero;stroke:none"
       d="m 226.28406,612.43181 h 6.69449 v 1.316 h -2.64412 v 6.59885 h -1.42242 v -6.59885 h -2.62795 v -1.316" />
    <path
       id="path7032"
       style="fill:#e1c73e;fill-opacity:1;fill-rule:nonzero;stroke:none"
       d="m 201.45922,612.43181 h 6.69314 v 1.316 h -2.64547 v 6.59885 h -1.42241 v -6.59885 h -2.62526 v -1.316" />
    <path
       id="path7034"
       style="fill:#e1c73e;fill-opacity:1;fill-rule:nonzero;stroke:none"
       d="M 237.54886,612.40083 H 239.11 l 2.44343,6.16917 2.39223,-6.18669 h 1.52478 l -2.97952,7.87984 h -1.96255 l -2.97951,-7.86232" />
    <path
       id="path7036"
       style="fill:#e1c73e;fill-opacity:1;fill-rule:nonzero;stroke:none"
       d="m 246.64366,612.38467 h 6.64196 v 1.33081 h -5.20608 v 1.94908 h 5.16163 v 1.34563 h -5.16163 v 1.96928 h 5.20877 v 1.31062 h -6.64465 v -7.90542" />
    <path
       id="path7038"
       style="fill:#e1c73e;fill-opacity:1;fill-rule:nonzero;stroke:none"
       d="m 209.85898,612.38467 h 6.64466 v 1.33081 h -5.20608 v 1.94908 h 5.16163 v 1.34563 h -5.16163 v 1.96928 h 5.20877 v 1.31062 h -6.64735 v -7.90542" />
    <path
       id="path7040"
       style="fill:#e1c73e;fill-opacity:1;fill-rule:nonzero;stroke:none"
       d="m 193.79221,612.38467 h 6.64331 v 1.33081 h -5.20608 v 1.94908 h 5.16298 v 1.34563 h -5.16298 v 1.96928 h 5.21012 v 1.31062 h -6.64735 v -7.90542" />
    <path
       id="path7042"
       style="fill:#e1c73e;fill-opacity:1;fill-rule:nonzero;stroke:none"
       d="m 284.11125,607.22169 h 3.88065 l 5.92267,10.57379 v -10.57379 h 2.88524 v 13.65164 h -4.47332 l -5.22359,-9.55682 -0.035,9.55682 h -2.95663 v -13.65164" />
    <path
       id="path7044"
       style="fill:#e1c73e;fill-opacity:1;fill-rule:nonzero;stroke:none"
       d="m 312.49751,607.22169 h 3.8793 l 5.92132,10.57379 v -10.57379 h 2.88658 v 13.65164 h -4.47063 l -5.22763,-9.55682 -0.035,9.55682 h -2.95393 v -13.65164" />
    <path
       id="path7046"
       style="fill:#e1c73e;fill-opacity:1;fill-rule:nonzero;stroke:none"
       d="m 306.24482,615.83698 h -3.13711 l 1.50862,-4.3494 z m -4.95149,5.07676 0.85533,-2.63874 h 4.90032 l 0.96174,2.63874 h 3.04821 l -4.76157,-13.70552 H 302.938 l -4.76563,13.70552 h 3.12096" />
    <path
       id="path7048"
       style="fill:#e1c73e;fill-opacity:1;fill-rule:nonzero;stroke:none"
       d="m 278.06601,607.24728 h -3.54929 c -2.23599,0 -4.64708,1.82921 -4.64708,4.06788 v 5.46066 c 0,2.23598 2.41109,4.06384 4.64708,4.06384 h 3.54929 c 2.23464,0 4.64573,-1.82786 4.64573,-4.06384 v -5.46066 c 0,-2.23867 -2.41109,-4.06788 -4.64573,-4.06788 z m -1.77262,10.70984 c -3.67457,0 -3.7271,-0.24919 -3.7271,-3.9251 0,-3.67052 0.33136,-3.90085 3.7271,-3.90085 3.30952,0 3.72305,0.33674 3.72305,3.90085 0,3.25835 -0.21283,3.9251 -3.72305,3.9251" />
    <path
       id="path7050"
       style="fill:#e1c73e;fill-opacity:1;fill-rule:nonzero;stroke:none"
       d="m 261.65036,617.95712 c -3.67456,0 -3.72979,-0.24919 -3.72979,-3.9251 0,-3.67052 0.33271,-3.90085 3.72979,-3.90085 2.56061,0 3.38362,0.21012 3.63146,1.95312 h 2.69127 v -0.76913 c 0,-2.23867 -2.15112,-3.95338 -4.42618,-4.06788 h -3.13173 c -2.2764,0 -5.18587,0.97118 -5.18587,4.06788 0,0 -0.0821,1.76724 -0.0821,2.68858 0,0.91863 0.0821,2.77208 0.0821,2.77208 0,2.82057 2.78016,4.06384 4.85047,4.06384 h 3.5951 c 2.02316,-0.0269 3.92105,-1.12473 4.12849,-3.10613 0.0862,-0.96984 0.0862,-1.98276 0.0862,-1.98276 h -2.70069 c -0.1778,1.78474 -0.76374,2.20635 -3.53852,2.20635" />
    <path
       id="path7052"
       style="fill:#e1c73e;fill-opacity:1;fill-rule:nonzero;stroke:none"
       d="m 221.58848,618.90674 c -2.13765,0 -2.22116,-0.14817 -2.22116,-2.43803 0,-2.28044 0.093,-2.53637 2.16459,-2.53637 1.89117,0 2.14844,0.1549 2.31142,1.39682 h 1.54094 c -0.0215,-2.61448 -1.93291,-2.99702 -2.91755,-3.04956 h -1.82247 c -1.32408,0 -2.90947,1.22575 -2.90947,3.15193 v 2.23869 c 0,1.75646 1.71605,2.76938 2.9216,2.76938 h 2.09185 c 1.17996,-0.0188 2.61449,-0.58997 2.61449,-2.962 h -1.49245 c -0.17915,1.21093 -0.36368,1.42914 -2.28179,1.42914" />
    <path
       id="path7054"
       style="fill:#e1c73e;fill-opacity:1;fill-rule:nonzero;stroke:none"
       d="m 234.63534,620.32107 v -7.92293 h 1.4938 v 7.92293 z" />
    <path
       id="path7056"
       style="fill:#ed2328;fill-opacity:1;fill-rule:nonzero;stroke:none"
       d="m 451.56914,638.65885 c 0,11.7066 -9.48812,21.19877 -21.20012,21.19877 -11.70121,0 -21.19337,-9.49217 -21.19337,-21.19877 0,-11.70525 9.49216,-21.19472 21.19337,-21.19472 11.712,0 21.20012,9.48947 21.20012,21.19472" />
  </g>
</svg>
